<?xml version="1.0" encoding="UTF-8"?>
<svg width="800" height="1000" xmlns="http://www.w3.org/2000/svg">
    <!-- About Page Layout -->
    <!-- Navigation -->
    <rect x="0" y="0" width="800" height="60" fill="#f0f0f0"/>
    <text x="400" y="35" text-anchor="middle" font-family="Arial">Navigation Bar</text>
    
    <!-- Story Section -->
    <rect x="50" y="80" width="700" height="300" fill="#ffffff" stroke="#000000"/>
    <rect x="70" y="100" width="320" height="260" fill="#f0f0f0"/>
    <text x="230" y="230" text-anchor="middle">Story Content</text>
    <rect x="410" y="100" width="320" height="260" fill="#f0f0f0"/>
    <text x="570" y="230" text-anchor="middle">Story Image</text>
    
    <!-- Team Section -->
    <rect x="50" y="400" width="700" height="250" fill="#ffffff" stroke="#000000"/>
    <text x="400" y="430" text-anchor="middle" font-weight="bold">Our Team</text>
    <!-- Team Member Cards -->
    <rect x="70" y="450" width="150" height="180" fill="#f0f0f0"/>
    <rect x="240" y="450" width="150" height="180" fill="#f0f0f0"/>
    <rect x="410" y="450" width="150" height="180" fill="#f0f0f0"/>
    <rect x="580" y="450" width="150" height="180" fill="#f0f0f0"/>
    
    <!-- Values Section -->
    <rect x="50" y="670" width="700" height="200" fill="#ffffff" stroke="#000000"/>
    <text x="400" y="700" text-anchor="middle" font-weight="bold">Our Values</text>
    <!-- Value Cards -->
    <rect x="70" y="720" width="210" height="130" fill="#f0f0f0"/>
    <rect x="295" y="720" width="210" height="130" fill="#f0f0f0"/>
    <rect x="520" y="720" width="210" height="130" fill="#f0f0f0"/>
    
    <!-- Kitchen Tour -->
    <rect x="50" y="890" width="700" height="90" fill="#ffffff" stroke="#000000"/>
    <text x="400" y="935" text-anchor="middle">Kitchen Tour Section</text>
</svg>